<svg width="695" height="72" viewBox="0 0 695 72" fill="none" xmlns="http://www.w3.org/2000/svg">
<path d="M33.5039 40.4297C33.5039 45.0703 31.8281 48.7266 28.4766 51.3984C25.1484 54.0703 20.5078 55.4062 14.5547 55.4062C9.07031 55.4062 4.21875 54.375 0 52.3125V42.1875C3.46875 43.7344 6.39844 44.8242 8.78906 45.457C11.2031 46.0898 13.4062 46.4062 15.3984 46.4062C17.7891 46.4062 19.6172 45.9492 20.8828 45.0352C22.1719 44.1211 22.8164 42.7617 22.8164 40.957C22.8164 39.9492 22.5352 39.0586 21.9727 38.2852C21.4102 37.4883 20.5781 36.7266 19.4766 36C18.3984 35.2734 16.1836 34.1133 12.832 32.5195C9.69141 31.043 7.33594 29.625 5.76562 28.2656C4.19531 26.9062 2.94141 25.3242 2.00391 23.5195C1.06641 21.7148 0.597656 19.6055 0.597656 17.1914C0.597656 12.6445 2.13281 9.07031 5.20312 6.46875C8.29688 3.86719 12.5625 2.56641 18 2.56641C20.6719 2.56641 23.2148 2.88281 25.6289 3.51562C28.0664 4.14844 30.6094 5.03906 33.2578 6.1875L29.7422 14.6602C27 13.5352 24.7266 12.75 22.9219 12.3047C21.1406 11.8594 19.3828 11.6367 17.6484 11.6367C15.5859 11.6367 14.0039 12.1172 12.9023 13.0781C11.8008 14.0391 11.25 15.293 11.25 16.8398C11.25 17.8008 11.4727 18.6445 11.918 19.3711C12.3633 20.0742 13.0664 20.7656 14.0273 21.4453C15.0117 22.1016 17.3203 23.2969 20.9531 25.0312C25.7578 27.3281 29.0508 29.6367 30.832 31.957C32.6133 34.2539 33.5039 37.0781 33.5039 40.4297Z" fill="black"/>
<path d="M66.9375 54.7031L64.8633 49.3594H64.582C62.7773 51.6328 60.9141 53.2148 58.9922 54.1055C57.0938 54.9727 54.6094 55.4062 51.5391 55.4062C47.7656 55.4062 44.7891 54.3281 42.6094 52.1719C40.4531 50.0156 39.375 46.9453 39.375 42.9609C39.375 38.7891 40.8281 35.7188 43.7344 33.75C46.6641 31.7578 51.0703 30.6562 56.9531 30.4453L63.7734 30.2344V28.5117C63.7734 24.5273 61.7344 22.5352 57.6562 22.5352C54.5156 22.5352 50.8242 23.4844 46.582 25.3828L43.0312 18.1406C47.5547 15.7734 52.5703 14.5898 58.0781 14.5898C63.3516 14.5898 67.3945 15.7383 70.207 18.0352C73.0195 20.332 74.4258 23.8242 74.4258 28.5117V54.7031H66.9375ZM63.7734 36.4922L59.625 36.6328C56.5078 36.7266 54.1875 37.2891 52.6641 38.3203C51.1406 39.3516 50.3789 40.9219 50.3789 43.0312C50.3789 46.0547 52.1133 47.5664 55.582 47.5664C58.0664 47.5664 60.0469 46.8516 61.5234 45.4219C63.0234 43.9922 63.7734 42.0938 63.7734 39.7266V36.4922Z" fill="black"/>
<path d="M120.691 54.7031H109.969V31.7461C109.969 28.9102 109.488 26.7891 108.527 25.3828C107.59 23.9531 106.102 23.2383 104.062 23.2383C101.32 23.2383 99.3281 24.2461 98.0859 26.2617C96.8438 28.2773 96.2227 31.5938 96.2227 36.2109V54.7031H85.5V15.3984H93.6914L95.1328 20.4258H95.7305C96.7852 18.6211 98.3086 17.2148 100.301 16.207C102.293 15.1758 104.578 14.6602 107.156 14.6602C113.039 14.6602 117.023 16.582 119.109 20.4258H120.059C121.113 18.5977 122.66 17.1797 124.699 16.1719C126.762 15.1641 129.082 14.6602 131.66 14.6602C136.113 14.6602 139.477 15.8086 141.75 18.1055C144.047 20.3789 145.195 24.0352 145.195 29.0742V54.7031H134.438V31.7461C134.438 28.9102 133.957 26.7891 132.996 25.3828C132.059 23.9531 130.57 23.2383 128.531 23.2383C125.906 23.2383 123.938 24.1758 122.625 26.0508C121.336 27.9258 120.691 30.9023 120.691 34.9805V54.7031Z" fill="black"/>
<path d="M177.82 55.4062C173.203 55.4062 169.582 53.7305 166.957 50.3789H166.395C166.77 53.6602 166.957 55.5586 166.957 56.0742V72H156.234V15.3984H164.953L166.465 20.4961H166.957C169.465 16.6055 173.18 14.6602 178.102 14.6602C182.742 14.6602 186.375 16.4531 189 20.0391C191.625 23.625 192.938 28.6055 192.938 34.9805C192.938 39.1758 192.316 42.8203 191.074 45.9141C189.855 49.0078 188.109 51.3633 185.836 52.9805C183.562 54.5977 180.891 55.4062 177.82 55.4062ZM174.656 23.2383C172.008 23.2383 170.074 24.0586 168.855 25.6992C167.637 27.3164 167.004 30 166.957 33.75V34.9102C166.957 39.1289 167.578 42.1523 168.82 43.9805C170.086 45.8086 172.078 46.7227 174.797 46.7227C179.602 46.7227 182.004 42.7617 182.004 34.8398C182.004 30.9727 181.406 28.0781 180.211 26.1562C179.039 24.2109 177.188 23.2383 174.656 23.2383Z" fill="black"/>
<path d="M212.52 54.7031H201.797V0H212.52V54.7031Z" fill="black"/>
<path d="M223.348 5.23828C223.348 1.74609 225.293 0 229.184 0C233.074 0 235.02 1.74609 235.02 5.23828C235.02 6.90234 234.527 8.20312 233.543 9.14062C232.582 10.0547 231.129 10.5117 229.184 10.5117C225.293 10.5117 223.348 8.75391 223.348 5.23828ZM234.527 54.7031H223.805V15.3984H234.527V54.7031Z" fill="black"/>
<path d="M282.094 54.7031H271.371V31.7461C271.371 28.9102 270.867 26.7891 269.859 25.3828C268.852 23.9531 267.246 23.2383 265.043 23.2383C262.043 23.2383 259.875 24.2461 258.539 26.2617C257.203 28.2539 256.535 31.5703 256.535 36.2109V54.7031H245.812V15.3984H254.004L255.445 20.4258H256.043C257.238 18.5273 258.879 17.0977 260.965 16.1367C263.074 15.1523 265.465 14.6602 268.137 14.6602C272.707 14.6602 276.176 15.9023 278.543 18.3867C280.91 20.8477 282.094 24.4102 282.094 29.0742V54.7031Z" fill="black"/>
<path d="M327.34 15.3984V20.8477L321.188 22.4297C322.312 24.1875 322.875 26.1562 322.875 28.3359C322.875 32.5547 321.398 35.8477 318.445 38.2148C315.516 40.5586 311.438 41.7305 306.211 41.7305L304.277 41.625L302.695 41.4492C301.594 42.293 301.043 43.2305 301.043 44.2617C301.043 45.8086 303.012 46.582 306.949 46.582H313.629C317.941 46.582 321.223 47.5078 323.473 49.3594C325.746 51.2109 326.883 53.9297 326.883 57.5156C326.883 62.1094 324.961 65.6719 321.117 68.2031C317.297 70.7344 311.801 72 304.629 72C299.145 72 294.949 71.0391 292.043 69.1172C289.16 67.2188 287.719 64.5469 287.719 61.1016C287.719 58.7344 288.457 56.7539 289.934 55.1602C291.41 53.5664 293.578 52.4297 296.438 51.75C295.336 51.2812 294.375 50.5195 293.555 49.4648C292.734 48.3867 292.324 47.25 292.324 46.0547C292.324 44.5547 292.758 43.3125 293.625 42.3281C294.492 41.3203 295.746 40.3359 297.387 39.375C295.324 38.4844 293.684 37.0547 292.465 35.0859C291.27 33.1172 290.672 30.7969 290.672 28.125C290.672 23.8359 292.066 20.5195 294.855 18.1758C297.645 15.832 301.629 14.6602 306.809 14.6602C307.91 14.6602 309.211 14.7656 310.711 14.9766C312.234 15.1641 313.207 15.3047 313.629 15.3984H327.34ZM297 60.2578C297 61.7344 297.703 62.8945 299.109 63.7383C300.539 64.582 302.531 65.0039 305.086 65.0039C308.93 65.0039 311.941 64.4766 314.121 63.4219C316.301 62.3672 317.391 60.9258 317.391 59.0977C317.391 57.6211 316.746 56.6016 315.457 56.0391C314.168 55.4766 312.176 55.1953 309.48 55.1953H303.926C301.957 55.1953 300.305 55.6523 298.969 56.5664C297.656 57.5039 297 58.7344 297 60.2578ZM300.902 28.2656C300.902 30.3984 301.383 32.0859 302.344 33.3281C303.328 34.5703 304.816 35.1914 306.809 35.1914C308.824 35.1914 310.301 34.5703 311.238 33.3281C312.176 32.0859 312.645 30.3984 312.645 28.2656C312.645 23.5312 310.699 21.1641 306.809 21.1641C302.871 21.1641 300.902 23.5312 300.902 28.2656Z" fill="black"/>
<path d="M366.645 40.0078L362.18 49.6758L355.113 46.7227L358.242 40.0078H350.016V32.3086H361.828L364.641 26.332H350.016V18.7031H368.156L372.762 8.82422L379.828 11.8477L376.594 18.7031H384.926V26.332H373.043L370.266 32.3086H384.926V40.0078H366.645Z" fill="black"/>
<path d="M443.566 40.4297C443.566 45.0703 441.891 48.7266 438.539 51.3984C435.211 54.0703 430.57 55.4062 424.617 55.4062C419.133 55.4062 414.281 54.375 410.062 52.3125V42.1875C413.531 43.7344 416.461 44.8242 418.852 45.457C421.266 46.0898 423.469 46.4062 425.461 46.4062C427.852 46.4062 429.68 45.9492 430.945 45.0352C432.234 44.1211 432.879 42.7617 432.879 40.957C432.879 39.9492 432.598 39.0586 432.035 38.2852C431.473 37.4883 430.641 36.7266 429.539 36C428.461 35.2734 426.246 34.1133 422.895 32.5195C419.754 31.043 417.398 29.625 415.828 28.2656C414.258 26.9062 413.004 25.3242 412.066 23.5195C411.129 21.7148 410.66 19.6055 410.66 17.1914C410.66 12.6445 412.195 9.07031 415.266 6.46875C418.359 3.86719 422.625 2.56641 428.062 2.56641C430.734 2.56641 433.277 2.88281 435.691 3.51562C438.129 4.14844 440.672 5.03906 443.32 6.1875L439.805 14.6602C437.062 13.5352 434.789 12.75 432.984 12.3047C431.203 11.8594 429.445 11.6367 427.711 11.6367C425.648 11.6367 424.066 12.1172 422.965 13.0781C421.863 14.0391 421.312 15.293 421.312 16.8398C421.312 17.8008 421.535 18.6445 421.98 19.3711C422.426 20.0742 423.129 20.7656 424.09 21.4453C425.074 22.1016 427.383 23.2969 431.016 25.0312C435.82 27.3281 439.113 29.6367 440.895 31.957C442.676 34.2539 443.566 37.0781 443.566 40.4297Z" fill="black"/>
<path d="M468.598 46.8633C470.473 46.8633 472.723 46.4531 475.348 45.6328V53.6133C472.676 54.8086 469.395 55.4062 465.504 55.4062C461.215 55.4062 458.086 54.3281 456.117 52.1719C454.172 49.9922 453.199 46.7344 453.199 42.3984V23.4492H448.066V18.9141L453.973 15.3281L457.066 7.03125H463.922V15.3984H474.926V23.4492H463.922V42.3984C463.922 43.9219 464.344 45.0469 465.188 45.7734C466.055 46.5 467.191 46.8633 468.598 46.8633Z" fill="black"/>
<path d="M499.605 22.2891C497.332 22.2891 495.551 23.0156 494.262 24.4688C492.973 25.8984 492.234 27.9375 492.047 30.5859H507.094C507.047 27.9375 506.355 25.8984 505.02 24.4688C503.684 23.0156 501.879 22.2891 499.605 22.2891ZM501.117 55.4062C494.789 55.4062 489.844 53.6602 486.281 50.168C482.719 46.6758 480.938 41.7305 480.938 35.332C480.938 28.7461 482.578 23.6602 485.859 20.0742C489.164 16.4648 493.723 14.6602 499.535 14.6602C505.09 14.6602 509.414 16.2422 512.508 19.4062C515.602 22.5703 517.148 26.9414 517.148 32.5195V37.7227H491.801C491.918 40.7695 492.82 43.1484 494.508 44.8594C496.195 46.5703 498.562 47.4258 501.609 47.4258C503.977 47.4258 506.215 47.1797 508.324 46.6875C510.434 46.1953 512.637 45.4102 514.934 44.332V52.6289C513.059 53.5664 511.055 54.2578 508.922 54.7031C506.789 55.1719 504.188 55.4062 501.117 55.4062Z" fill="black"/>
<path d="M550.828 54.7031L548.754 49.3594H548.473C546.668 51.6328 544.805 53.2148 542.883 54.1055C540.984 54.9727 538.5 55.4062 535.43 55.4062C531.656 55.4062 528.68 54.3281 526.5 52.1719C524.344 50.0156 523.266 46.9453 523.266 42.9609C523.266 38.7891 524.719 35.7188 527.625 33.75C530.555 31.7578 534.961 30.6562 540.844 30.4453L547.664 30.2344V28.5117C547.664 24.5273 545.625 22.5352 541.547 22.5352C538.406 22.5352 534.715 23.4844 530.473 25.3828L526.922 18.1406C531.445 15.7734 536.461 14.5898 541.969 14.5898C547.242 14.5898 551.285 15.7383 554.098 18.0352C556.91 20.332 558.316 23.8242 558.316 28.5117V54.7031H550.828ZM547.664 36.4922L543.516 36.6328C540.398 36.7266 538.078 37.2891 536.555 38.3203C535.031 39.3516 534.27 40.9219 534.27 43.0312C534.27 46.0547 536.004 47.5664 539.473 47.5664C541.957 47.5664 543.938 46.8516 545.414 45.4219C546.914 43.9922 547.664 42.0938 547.664 39.7266V36.4922Z" fill="black"/>
<path d="M580.113 54.7031H569.391V0H580.113V54.7031Z" fill="black"/>
<path d="M590.941 5.23828C590.941 1.74609 592.887 0 596.777 0C600.668 0 602.613 1.74609 602.613 5.23828C602.613 6.90234 602.121 8.20312 601.137 9.14062C600.176 10.0547 598.723 10.5117 596.777 10.5117C592.887 10.5117 590.941 8.75391 590.941 5.23828ZM602.121 54.7031H591.398V15.3984H602.121V54.7031Z" fill="black"/>
<path d="M649.688 54.7031H638.965V31.7461C638.965 28.9102 638.461 26.7891 637.453 25.3828C636.445 23.9531 634.84 23.2383 632.637 23.2383C629.637 23.2383 627.469 24.2461 626.133 26.2617C624.797 28.2539 624.129 31.5703 624.129 36.2109V54.7031H613.406V15.3984H621.598L623.039 20.4258H623.637C624.832 18.5273 626.473 17.0977 628.559 16.1367C630.668 15.1523 633.059 14.6602 635.73 14.6602C640.301 14.6602 643.77 15.9023 646.137 18.3867C648.504 20.8477 649.688 24.4102 649.688 29.0742V54.7031Z" fill="black"/>
<path d="M694.934 15.3984V20.8477L688.781 22.4297C689.906 24.1875 690.469 26.1562 690.469 28.3359C690.469 32.5547 688.992 35.8477 686.039 38.2148C683.109 40.5586 679.031 41.7305 673.805 41.7305L671.871 41.625L670.289 41.4492C669.188 42.293 668.637 43.2305 668.637 44.2617C668.637 45.8086 670.605 46.582 674.543 46.582H681.223C685.535 46.582 688.816 47.5078 691.066 49.3594C693.34 51.2109 694.477 53.9297 694.477 57.5156C694.477 62.1094 692.555 65.6719 688.711 68.2031C684.891 70.7344 679.395 72 672.223 72C666.738 72 662.543 71.0391 659.637 69.1172C656.754 67.2188 655.312 64.5469 655.312 61.1016C655.312 58.7344 656.051 56.7539 657.527 55.1602C659.004 53.5664 661.172 52.4297 664.031 51.75C662.93 51.2812 661.969 50.5195 661.148 49.4648C660.328 48.3867 659.918 47.25 659.918 46.0547C659.918 44.5547 660.352 43.3125 661.219 42.3281C662.086 41.3203 663.34 40.3359 664.98 39.375C662.918 38.4844 661.277 37.0547 660.059 35.0859C658.863 33.1172 658.266 30.7969 658.266 28.125C658.266 23.8359 659.66 20.5195 662.449 18.1758C665.238 15.832 669.223 14.6602 674.402 14.6602C675.504 14.6602 676.805 14.7656 678.305 14.9766C679.828 15.1641 680.801 15.3047 681.223 15.3984H694.934ZM664.594 60.2578C664.594 61.7344 665.297 62.8945 666.703 63.7383C668.133 64.582 670.125 65.0039 672.68 65.0039C676.523 65.0039 679.535 64.4766 681.715 63.4219C683.895 62.3672 684.984 60.9258 684.984 59.0977C684.984 57.6211 684.34 56.6016 683.051 56.0391C681.762 55.4766 679.77 55.1953 677.074 55.1953H671.52C669.551 55.1953 667.898 55.6523 666.562 56.5664C665.25 57.5039 664.594 58.7344 664.594 60.2578ZM668.496 28.2656C668.496 30.3984 668.977 32.0859 669.938 33.3281C670.922 34.5703 672.41 35.1914 674.402 35.1914C676.418 35.1914 677.895 34.5703 678.832 33.3281C679.77 32.0859 680.238 30.3984 680.238 28.2656C680.238 23.5312 678.293 21.1641 674.402 21.1641C670.465 21.1641 668.496 23.5312 668.496 28.2656Z" fill="black"/>
</svg>
